<svg width="73" height="30" viewBox="0 0 73 30" fill="none" xmlns="http://www.w3.org/2000/svg">
<path d="M1.264 23C1.05067 23 0.869334 22.9253 0.72 22.776C0.570667 22.6267 0.496 22.4453 0.496 22.232V1.368C0.496 1.13333 0.570667 0.951999 0.72 0.823999C0.869334 0.674665 1.05067 0.599998 1.264 0.599998H4.272C4.50667 0.599998 4.688 0.674665 4.816 0.823999C4.96533 0.951999 5.04 1.13333 5.04 1.368V19.16H15.184C15.4187 19.16 15.6107 19.2347 15.76 19.384C15.9093 19.5333 15.984 19.7147 15.984 19.928V22.232C15.984 22.4453 15.9093 22.6267 15.76 22.776C15.6107 22.9253 15.4187 23 15.184 23H1.264ZM25.8478 23.32C23.3304 23.32 21.3891 22.68 20.0238 21.4C18.6584 20.12 17.9224 18.3493 17.8158 16.088L17.7838 14.68L17.8158 13.272C17.9224 11.032 18.6691 9.272 20.0558 7.992C21.4424 6.69067 23.3731 6.04 25.8478 6.04C28.3011 6.04 30.2211 6.69067 31.6078 7.992C32.9944 9.272 33.7411 11.032 33.8478 13.272C33.8691 13.528 33.8798 13.9973 33.8798 14.68C33.8798 15.3627 33.8691 15.832 33.8478 16.088C33.7411 18.3493 33.0051 20.12 31.6398 21.4C30.2744 22.68 28.3438 23.32 25.8478 23.32ZM25.8478 20.088C26.9784 20.088 27.8424 19.736 28.4398 19.032C29.0584 18.328 29.3891 17.2933 29.4318 15.928C29.4531 15.7147 29.4638 15.2987 29.4638 14.68C29.4638 14.0613 29.4531 13.6453 29.4318 13.432C29.3891 12.0667 29.0584 11.032 28.4398 10.328C27.8211 9.60267 26.9571 9.24 25.8478 9.24C24.7171 9.24 23.8424 9.60267 23.2238 10.328C22.6051 11.032 22.2744 12.0667 22.2318 13.432L22.1998 14.68L22.2318 15.928C22.2744 17.2933 22.6051 18.328 23.2238 19.032C23.8424 19.736 24.7171 20.088 25.8478 20.088ZM44.9445 30.04C43.0458 30.04 41.5098 29.72 40.3365 29.08C39.1632 28.4613 38.3312 27.7467 37.8405 26.936C37.3498 26.1253 37.1045 25.432 37.1045 24.856C37.1045 24.6427 37.1792 24.4613 37.3285 24.312C37.4778 24.184 37.6592 24.12 37.8725 24.12H40.7205C40.9125 24.12 41.0725 24.1627 41.2005 24.248C41.3498 24.3547 41.4672 24.536 41.5525 24.792C41.7872 25.3467 42.1392 25.816 42.6085 26.2C43.0778 26.6053 43.8032 26.808 44.7845 26.808C46.0645 26.808 47.0032 26.52 47.6005 25.944C48.1978 25.3893 48.4965 24.408 48.4965 23V20.824C47.3445 22.1893 45.7125 22.872 43.6005 22.872C41.3818 22.872 39.7072 22.2 38.5765 20.856C37.4672 19.512 36.8698 17.6773 36.7845 15.352L36.7525 14.488L36.7845 13.624C36.8698 11.3413 37.4778 9.50667 38.6085 8.12C39.7392 6.73333 41.4032 6.04 43.6005 6.04C44.7312 6.04 45.7232 6.25333 46.5765 6.68C47.4298 7.10667 48.1338 7.68267 48.6885 8.408V7.16C48.6885 6.92533 48.7632 6.73333 48.9125 6.584C49.0832 6.43467 49.2752 6.36 49.4885 6.36H52.1125C52.3258 6.36 52.5072 6.43467 52.6565 6.584C52.8058 6.73333 52.8805 6.92533 52.8805 7.16L52.9125 22.584C52.9125 24.952 52.2512 26.7867 50.9285 28.088C49.6058 29.3893 47.6112 30.04 44.9445 30.04ZM44.8165 19.48C46.0112 19.48 46.9072 19.096 47.5045 18.328C48.1018 17.56 48.4325 16.6213 48.4965 15.512C48.5178 15.3413 48.5285 15 48.5285 14.488C48.5285 13.976 48.5178 13.6347 48.4965 13.464C48.4325 12.3547 48.1018 11.416 47.5045 10.648C46.9072 9.88 46.0112 9.496 44.8165 9.496C42.5125 9.496 41.2965 10.904 41.1685 13.72L41.1365 14.488C41.1365 17.816 42.3632 19.48 44.8165 19.48ZM64.5353 23.32C62.0179 23.32 60.0766 22.68 58.7113 21.4C57.3459 20.12 56.6099 18.3493 56.5033 16.088L56.4713 14.68L56.5033 13.272C56.6099 11.032 57.3566 9.272 58.7433 7.992C60.1299 6.69067 62.0606 6.04 64.5353 6.04C66.9886 6.04 68.9086 6.69067 70.2953 7.992C71.6819 9.272 72.4286 11.032 72.5353 13.272C72.5566 13.528 72.5673 13.9973 72.5673 14.68C72.5673 15.3627 72.5566 15.832 72.5353 16.088C72.4286 18.3493 71.6926 20.12 70.3273 21.4C68.9619 22.68 67.0313 23.32 64.5353 23.32ZM64.5353 20.088C65.6659 20.088 66.5299 19.736 67.1273 19.032C67.7459 18.328 68.0766 17.2933 68.1193 15.928C68.1406 15.7147 68.1513 15.2987 68.1513 14.68C68.1513 14.0613 68.1406 13.6453 68.1193 13.432C68.0766 12.0667 67.7459 11.032 67.1273 10.328C66.5086 9.60267 65.6446 9.24 64.5353 9.24C63.4046 9.24 62.5299 9.60267 61.9113 10.328C61.2926 11.032 60.9619 12.0667 60.9193 13.432L60.8873 14.68L60.9193 15.928C60.9619 17.2933 61.2926 18.328 61.9113 19.032C62.5299 19.736 63.4046 20.088 64.5353 20.088Z" fill="#409FFF"/>
</svg>
